<svg xmlns="http://www.w3.org/2000/svg" version="1.1" viewBox="0 0 500 500" height="30px" width="30px" >
  <defs>
    <style>
      .cls-1 {
        fill: #fff;
      }
    </style>
  </defs>
  <!-- Generator: Adobe Illustrator 28.6.0, SVG Export Plug-In . SVG Version: 1.2.0 Build 709)  -->
  <g>
    <g id="Layer_1" height="30px" width="30px">
      <g id="OvnzWV">
        <g>
          <path class="cls-1" d="M234.9,43.3c-9.9,10.4-18.4,20.3-21.7,33.6-2,8.3,0,15.6,5.7,21.8,3.3,3.6,6.8,7.2,10.1,10.8,5.5,5.9,7.2,13,5.3,20.7-1.4,5.5-3.3,10.9-5,16.4-.6,2-1.2,4.1-1.8,6.2,8.9-6.8,16.6-14.2,20.8-24.5,3.4-8.2,2.6-15.9-3-22.9-2.4-3-5-5.9-7.9-8.5-8.7-8-11.4-17.6-8.6-29,1.9-7.8,3.8-15.7,6.1-24.7ZM186.9,163.4c7.7-6.7,14-12.9,17.7-21.3,3.4-7.6,2.4-14.6-3-20.8-2.2-2.5-4.5-5-6.9-7.3-6.6-6.3-8.6-13.9-6.6-22.6,1.6-6.9,3.3-13.8,5.2-21.8-8.1,8.5-14.9,16.5-17.8,26.9-2,7.3-1,14,4.3,19.7,2.7,2.9,5.5,5.8,8.2,8.7,5.2,5.4,6.7,11.7,4.9,18.8-1,4-2.4,7.9-3.6,11.8-.7,2.2-1.3,4.4-2.4,7.7Z"/>
          <path class="cls-1" d="M57,186.7h308.9v57.8c6.4,0,12.5-.4,18.5.1,9.4.8,18.9,1.5,28,3.8,21.3,5.2,31.8,19.1,30.8,41-1.3,28.4-12.3,53-32.3,73.2-16.7,17-36.5,20-58.5,11.9-1.1-.4-2.2-.8-3.6-1.3-.8,1.4-1.5,2.6-2.2,3.9-30.7,51.8-76.1,79.3-136.3,79.6-74.6.4-138.6-54.2-151.2-127.6-1.5-8.6-2.2-17.5-2.3-26.2-.2-37.3-.1-74.6,0-112,0-1.3.1-2.6.2-4.2ZM350.7,202.1H72.2c0,1.3-.2,2.3-.2,3.2,0,33.1,0,66.1,0,99.2,0,5.8.4,11.7,1.2,17.5,10.4,73.6,77,126.1,150.9,119.1,71.6-6.8,126.3-66.8,126.4-138.6,0-31.9,0-63.7,0-95.6,0-1.6,0-3.1,0-4.8ZM355.1,358.6c14.9,8.7,32.6,6.4,45.3-6.4,17.3-17.5,26.4-38.9,27.6-63.4.8-15.9-7-25.5-22.8-27.5-11-1.4-22.3-1.2-33.5-1.6-1.9,0-3.8.6-5.9.9-.5,33.4,3.1,66.7-10.8,97.9Z"/>
          <path class="cls-1" d="M234.9,43.3c-2.2,9-4.1,16.9-6.1,24.7-2.8,11.4-.1,21,8.6,29,2.8,2.6,5.5,5.5,7.9,8.5,5.6,7,6.5,14.7,3,22.9-4.3,10.3-12,17.7-20.8,24.5.6-2.1,1.2-4.1,1.8-6.2,1.7-5.5,3.6-10.9,5-16.4,1.9-7.8.3-14.8-5.3-20.7-3.4-3.6-6.8-7.1-10.1-10.8-5.7-6.3-7.7-13.6-5.7-21.8,3.2-13.3,11.7-23.2,21.7-33.6Z"/>
          <path class="cls-1" d="M186.9,163.4c1-3.3,1.7-5.5,2.4-7.7,1.2-3.9,2.6-7.8,3.6-11.8,1.8-7.1.3-13.5-4.9-18.8-2.8-2.9-5.5-5.8-8.2-8.7-5.3-5.7-6.3-12.4-4.3-19.7,2.9-10.5,9.7-18.4,17.8-26.9-1.9,8-3.6,14.9-5.2,21.8-2,8.8,0,16.3,6.6,22.6,2.4,2.3,4.7,4.7,6.9,7.3,5.4,6.3,6.4,13.3,3,20.8-3.7,8.4-10,14.6-17.7,21.3Z"/>
          <path class="cls-1" d="M87.7,263.9h246.5c.2.4.5.6.4.8-.4,21.9,2.1,44-3,65.7-12.2,51.9-55.7,89.8-108.8,94.9-65.5,6.2-124.2-39.7-133.7-104.6-.9-6.2-1.3-12.5-1.4-18.7-.2-12.5,0-25,0-38Z"/>
        </g>
      </g>
    </g>
  </g>
</svg>