<?xml version="1.0" standalone="no"?>
<!DOCTYPE svg PUBLIC "-//W3C//DTD SVG 20010904//EN"
 "http://www.w3.org/TR/2001/REC-SVG-20010904/DTD/svg10.dtd">
<svg version="1.0" xmlns="http://www.w3.org/2000/svg"
 width="512.000000pt" height="512.000000pt" viewBox="0 0 512.000000 512.000000"
 preserveAspectRatio="xMidYMid meet">

<g transform="translate(0.000000,512.000000) scale(0.100000,-0.100000)"
fill="#000000" stroke="none">
<path d="M2325 5109 c-785 -85 -1377 -556 -1629 -1296 -84 -248 -123 -472
-132 -773 -8 -227 8 -318 81 -480 58 -129 78 -219 73 -326 -5 -104 -31 -158
-138 -284 -140 -165 -186 -294 -177 -495 6 -131 32 -243 88 -366 52 -115 72
-212 66 -309 -7 -112 -32 -154 -172 -300 -88 -91 -130 -144 -157 -196 -37 -70
-68 -167 -68 -212 0 -33 43 -72 78 -72 45 0 71 28 88 94 29 110 67 169 187
289 120 120 164 187 192 292 32 124 12 297 -52 440 -56 127 -84 230 -90 335
-10 170 28 274 148 407 198 217 220 452 75 780 -59 131 -69 199 -62 403 12
376 82 672 226 959 179 356 432 610 776 777 500 243 1158 245 1661 4 547 -261
904 -797 993 -1490 6 -47 13 -161 17 -255 6 -198 -5 -269 -63 -398 -62 -142
-85 -223 -91 -332 -9 -176 39 -307 165 -448 80 -90 115 -149 137 -232 29 -114
13 -286 -39 -417 -34 -84 -34 -121 0 -147 58 -45 110 -15 148 87 42 113 57
182 62 302 10 205 -34 330 -176 500 -107 126 -133 180 -138 284 -5 107 15 197
73 326 73 161 88 254 82 475 -13 397 -89 728 -237 1030 -277 564 -761 918
-1400 1027 -136 23 -457 32 -595 17z"/>
<path d="M2843 4074 c-7 -3 -37 -43 -67 -88 -66 -100 -194 -223 -310 -300
-105 -71 -317 -172 -466 -224 -220 -76 -539 -146 -795 -173 -104 -11 -123 -16
-144 -37 -24 -24 -24 -24 -17 -177 34 -764 232 -1448 536 -1850 109 -144 312
-326 403 -361 22 -8 23 -108 2 -227 -41 -234 -139 -390 -291 -463 -77 -37 -94
-55 -94 -99 0 -34 42 -75 76 -75 43 0 164 64 226 120 136 122 233 342 253 578
4 45 9 82 11 82 2 0 36 -9 76 -20 197 -53 424 -53 630 0 43 11 80 20 83 20 3
0 5 -17 5 -38 0 -122 67 -359 132 -470 53 -91 163 -194 250 -236 41 -20 87
-36 102 -36 34 0 76 41 76 75 0 44 -17 62 -94 99 -119 57 -207 168 -260 329
-24 71 -46 210 -46 287 l0 68 56 32 c76 43 104 72 104 110 0 38 -39 80 -75 80
-14 0 -66 -24 -115 -54 -174 -105 -310 -141 -530 -140 -213 0 -346 34 -509
129 -472 277 -771 992 -846 2026 l-6 86 73 8 c213 20 518 88 751 165 332 111
620 281 782 463 l59 66 34 -62 c139 -250 354 -444 612 -550 91 -38 214 -72
295 -82 28 -3 65 -8 83 -11 l32 -5 -6 -94 c-7 -91 -6 -94 19 -119 41 -41 97
-32 125 20 6 12 15 85 18 162 l7 140 -26 26 c-23 23 -35 26 -90 26 -135 0
-341 51 -472 118 -231 116 -432 339 -520 577 -14 39 -35 78 -47 88 -19 16 -59
21 -85 11z"/>
<path d="M2865 3184 c-634 -113 -1015 -759 -807 -1364 52 -150 142 -290 259
-403 87 -85 142 -124 252 -181 296 -152 635 -153 936 -3 44 22 99 53 123 70
l43 31 106 -106 106 -106 -22 -27 c-48 -62 -49 -62 282 -392 279 -280 305
-303 337 -303 30 0 46 12 137 103 91 91 103 107 103 137 0 32 -23 58 -303 337
-330 331 -330 330 -392 282 l-27 -22 -104 104 -104 103 29 31 c52 55 108 139
149 220 149 302 148 640 -4 936 -58 112 -97 167 -185 257 -238 243 -583 355
-914 296z m395 -173 c314 -84 547 -318 633 -636 29 -107 30 -316 3 -419 -88
-331 -321 -564 -652 -652 -104 -28 -312 -26 -421 4 -288 78 -522 293 -613 565
-178 529 158 1075 715 1161 67 10 261 -3 335 -23z m1045 -2151 l220 -220 -23
-22 -22 -23 -222 222 c-220 220 -222 222 -203 243 10 11 21 20 24 20 3 0 105
-99 226 -220z"/>
<path d="M3305 2615 c-50 -49 -15 -135 55 -135 41 0 80 39 80 80 0 19 -9 40
-25 55 -15 16 -36 25 -55 25 -19 0 -40 -9 -55 -25z"/>
<path d="M2585 2455 c-50 -49 -15 -135 55 -135 41 0 80 39 80 80 0 41 -39 80
-80 80 -19 0 -40 -9 -55 -25z"/>
<path d="M2985 2215 c-50 -49 -15 -135 55 -135 41 0 80 39 80 80 0 41 -39 80
-80 80 -19 0 -40 -9 -55 -25z"/>
<path d="M3465 2055 c-50 -49 -15 -135 55 -135 41 0 80 39 80 80 0 41 -39 80
-80 80 -19 0 -40 -9 -55 -25z"/>
<path d="M2505 1975 c-50 -49 -15 -135 55 -135 41 0 80 39 80 80 0 41 -39 80
-80 80 -19 0 -40 -9 -55 -25z"/>
<path d="M2985 1655 c-50 -49 -15 -135 55 -135 41 0 80 39 80 80 0 41 -39 80
-80 80 -19 0 -40 -9 -55 -25z"/>
<path d="M971 1819 c-59 -55 -95 -202 -88 -359 7 -134 30 -233 87 -366 55
-129 73 -210 68 -309 -6 -118 -26 -152 -172 -304 -107 -112 -131 -143 -165
-214 -66 -139 -75 -219 -28 -252 29 -20 70 -19 96 2 13 11 28 43 37 78 27 102
71 172 167 265 164 157 216 253 225 416 6 117 -16 228 -70 354 -60 139 -78
211 -85 335 -5 102 -4 115 22 185 40 113 42 134 11 164 -31 32 -74 34 -105 5z"/>
<path d="M4045 1815 c-32 -31 -31 -53 1 -134 21 -51 28 -91 33 -174 6 -98 8
-111 30 -128 33 -27 68 -24 102 10 27 28 29 34 29 113 0 96 -19 187 -55 262
-36 77 -94 98 -140 51z"/>
<path d="M1564 950 c-34 -13 -39 -28 -45 -140 -8 -146 -21 -171 -173 -329
-107 -112 -131 -143 -165 -214 -66 -139 -75 -219 -28 -252 29 -20 70 -19 96 3
13 10 28 42 37 77 27 104 69 168 193 293 88 89 124 133 148 182 40 82 56 167
51 265 -3 70 -6 80 -31 101 -30 25 -48 28 -83 14z"/>
<path d="M3470 940 c-28 -28 -33 -60 -28 -163 9 -164 61 -260 225 -417 96 -93
140 -163 167 -265 17 -66 43 -95 85 -95 32 0 68 31 77 64 8 34 -23 142 -64
221 -27 51 -70 104 -160 198 -151 157 -164 182 -170 327 -3 89 -7 108 -25 128
-26 28 -79 30 -107 2z"/>
<path d="M4026 609 c-34 -27 -35 -73 -1 -120 14 -19 67 -74 118 -124 100 -98
144 -168 171 -270 17 -66 43 -95 85 -95 92 0 101 93 26 255 -42 90 -60 113
-200 256 -127 129 -147 139 -199 98z"/>
<path d="M4665 435 c-40 -39 -33 -76 24 -138 54 -61 97 -143 107 -208 14 -83
87 -117 139 -64 29 28 31 49 10 129 -22 84 -80 189 -140 252 -60 63 -98 71
-140 29z"/>
</g>
</svg>
