<?xml version="1.0" standalone="no"?>
<!DOCTYPE svg PUBLIC "-//W3C//DTD SVG 20010904//EN"
 "http://www.w3.org/TR/2001/REC-SVG-20010904/DTD/svg10.dtd">
<svg version="1.0" xmlns="http://www.w3.org/2000/svg"
 width="512.000000pt" height="512.000000pt" viewBox="0 0 512.000000 512.000000"
 preserveAspectRatio="xMidYMid meet">

<g transform="translate(0.000000,512.000000) scale(0.100000,-0.100000)"
fill="#000000" stroke="none">
<path d="M2975 5110 c-134 -21 -291 -83 -406 -160 -98 -66 -235 -211 -296
-313 -49 -84 -90 -183 -113 -274 -9 -37 -20 -48 -103 -107 -124 -88 -262 -209
-338 -298 -35 -40 -65 -72 -67 -72 -2 1 -29 23 -60 50 l-55 48 -49 -54 c-26
-30 -48 -56 -48 -59 1 -3 24 -25 53 -49 153 -125 153 -120 5 -298 -112 -134
-140 -155 -178 -138 -28 13 -330 274 -330 285 0 5 61 82 137 172 75 89 138
164 140 166 1 2 11 -3 21 -12 10 -10 23 -17 28 -17 9 1 87 92 90 107 2 4 -67
67 -152 138 -85 72 -164 140 -176 152 l-20 22 46 53 47 53 -53 47 c-29 26 -56
48 -60 48 -3 0 -48 -49 -98 -110 l-92 -110 -89 76 c-49 42 -89 80 -89 85 0 4
25 36 55 71 l55 63 -53 47 c-28 26 -55 48 -59 48 -3 0 -122 -138 -264 -307
l-258 -306 55 -48 54 -49 60 66 61 66 92 -78 c91 -77 92 -78 74 -98 -68 -77
-172 -206 -172 -213 1 -4 25 -28 55 -51 l55 -44 27 33 c16 18 37 44 48 56 l20
23 320 -275 c176 -151 338 -284 361 -295 22 -11 55 -20 72 -20 28 0 32 -3 27
-22 -11 -47 -25 -206 -25 -281 0 -184 41 -408 106 -569 l35 -89 -64 -62 c-149
-144 -186 -343 -97 -523 71 -146 225 -244 380 -244 l57 0 23 -67 c27 -83 122
-269 159 -314 l27 -32 57 39 c31 21 56 42 57 45 0 4 -16 31 -36 60 -86 128
-153 308 -174 473 -8 54 -10 212 -8 442 5 406 10 438 87 591 40 81 150 229
177 240 8 3 43 -18 83 -51 38 -30 74 -57 79 -58 9 -3 92 93 92 106 0 3 -27 28
-61 56 l-61 51 77 35 c153 71 188 75 605 84 367 7 377 7 463 34 118 35 218 84
313 152 l78 56 83 -16 c209 -41 375 -170 464 -361 20 -44 42 -107 49 -140 8
-42 10 -239 8 -670 -4 -600 -4 -611 -26 -690 -71 -246 -228 -482 -440 -658
-247 -206 -570 -347 -797 -347 -259 0 -616 168 -866 407 l-96 92 -53 -48 -54
-48 23 -29 c31 -41 175 -168 244 -217 l57 -41 0 -308 0 -309 73 3 72 3 3 257
c1 142 5 258 7 258 3 0 37 -16 76 -36 175 -88 399 -140 559 -131 156 10 266
43 538 164 9 4 12 -51 12 -256 l0 -261 75 0 75 0 0 309 0 308 73 53 c104 77
292 270 363 375 71 104 126 209 164 315 l28 75 75 6 c151 13 285 106 354 247
33 66 38 85 41 168 4 74 0 107 -17 162 -21 70 -91 180 -128 201 -57 33 -57 31
-19 125 76 188 107 354 107 579 0 212 -20 336 -82 524 -27 83 -108 255 -129
277 -9 9 -133 -61 -128 -73 2 -3 23 -44 47 -90 96 -187 142 -391 142 -630 0
-240 -44 -439 -142 -632 -80 -160 -73 -180 -79 231 l-5 365 -31 87 c-90 251
-289 444 -530 513 -32 10 -60 18 -62 20 -1 1 22 41 52 89 79 126 145 322 147
439 1 83 6 84 95 13 44 -36 126 -113 182 -171 l101 -106 56 42 c31 23 54 46
53 51 -6 18 -154 174 -228 241 -63 57 -212 171 -257 195 -7 4 -24 47 -38 95
-98 338 -367 598 -713 688 -89 23 -294 33 -387 19z m355 -165 c99 -25 256
-106 336 -173 288 -241 380 -661 219 -999 -112 -237 -315 -403 -567 -463 -72
-17 -119 -20 -353 -20 -291 -1 -436 -10 -529 -35 -82 -22 -179 -62 -248 -102
-33 -20 -63 -31 -71 -27 -6 4 -57 44 -111 88 -55 45 -104 84 -110 88 -5 4 11
30 38 62 l48 56 -33 27 c-18 16 -69 58 -112 94 l-79 67 0 81 -1 81 62 74 c127
152 375 342 574 440 117 58 279 116 383 136 l61 12 -13 70 c-8 39 -15 72 -16
74 -13 12 -292 -70 -397 -117 -35 -16 -66 -27 -68 -25 -2 2 11 35 30 72 115
228 324 390 577 445 102 23 279 20 380 -6z m-2674 -597 c46 -39 84 -76 84 -80
0 -11 -80 -108 -89 -108 -3 0 -31 22 -61 48 -31 26 -71 59 -89 74 l-32 28 47
55 c26 30 50 55 52 55 2 0 41 -32 88 -72z m405 -155 c49 -43 87 -83 85 -89 -5
-14 -262 -320 -275 -328 -9 -6 -188 143 -190 159 -2 13 267 335 280 335 5 0
50 -35 100 -77z m671 -760 l37 -32 -46 -55 c-25 -31 -48 -56 -52 -56 -3 1 -28
20 -54 43 l-49 43 48 57 c52 63 44 63 116 0z m-126 -285 l85 -71 44 49 c24 27
44 52 45 57 0 4 4 7 8 7 7 0 173 -129 205 -160 5 -4 -19 -41 -53 -81 -79 -94
-141 -200 -179 -304 -39 -109 -52 -183 -60 -344 l-6 -135 -52 100 c-96 185
-149 379 -160 588 -7 132 14 366 33 366 3 0 43 -32 90 -72z m65 -1208 c25 -33
27 -43 32 -192 l6 -158 -37 0 c-95 0 -218 103 -248 208 -31 104 -2 214 76 292
l42 42 51 -79 c29 -43 64 -94 78 -113z m3071 143 c75 -77 99 -198 61 -309 -32
-93 -151 -184 -242 -184 l-26 0 3 151 4 151 76 113 c43 63 79 114 82 115 3 0
22 -17 42 -37z"/>
<path d="M3006 4603 l-38 -4 4 -69 c2 -38 6 -72 10 -75 3 -3 35 -3 72 1 l66 7
0 73 0 74 -37 -2 c-21 -1 -55 -3 -77 -5z"/>
<path d="M2478 2752 c-56 -3 -58 -4 -58 -31 0 -16 3 -49 6 -75 l7 -46 63 3
c35 2 66 6 68 8 2 2 6 34 10 70 7 77 8 76 -96 71z"/>
<path d="M2721 2653 c-11 -37 -17 -70 -13 -74 4 -3 30 -15 59 -27 39 -15 54
-17 61 -9 14 20 62 105 62 112 0 7 -124 65 -139 65 -6 0 -19 -30 -30 -67z"/>
<path d="M2168 2668 c-32 -17 -58 -35 -58 -40 0 -5 15 -30 33 -56 17 -25 35
-50 38 -55 5 -7 100 32 118 49 2 2 -7 33 -20 69 -15 43 -28 65 -38 65 -9 0
-42 -15 -73 -32z"/>
<path d="M2976 2501 l-49 -49 34 -49 c19 -26 35 -50 37 -52 3 -6 132 62 132
70 0 11 -89 129 -98 129 -4 0 -30 -22 -56 -49z"/>
<path d="M2150 2294 c-30 -21 -57 -38 -59 -40 -11 -9 89 -128 130 -154 64 -42
135 -51 359 -48 l185 3 3 72 3 72 -219 3 c-246 3 -248 4 -305 84 -17 24 -33
44 -37 44 -3 0 -30 -16 -60 -36z"/>
<path d="M3984 2278 c-26 -35 -51 -57 -74 -65 -22 -8 -108 -12 -237 -12 l-203
-1 0 -76 0 -76 228 4 c211 3 231 5 277 26 28 13 63 35 78 50 33 30 87 106 87
120 0 8 -103 82 -113 82 -3 0 -22 -24 -43 -52z"/>
<path d="M2025 1873 l-58 -47 57 -53 c31 -29 61 -53 66 -53 7 0 77 90 83 108
1 4 -19 26 -44 50 l-47 42 -57 -47z"/>
<path d="M2870 1843 c-25 -19 -46 -40 -48 -46 -1 -7 13 -38 31 -70 l33 -58 61
45 c33 24 63 48 66 53 4 5 -17 32 -46 60 l-52 51 -45 -35z"/>
<path d="M2290 1766 c0 -3 -11 -35 -25 -71 l-24 -65 52 -14 c100 -29 105 -29
110 -9 3 10 9 43 12 73 l7 55 -49 14 c-26 7 -56 15 -65 18 -10 3 -18 3 -18 -1z"/>
<path d="M2613 1738 l-53 -10 0 -61 c0 -89 2 -91 91 -75 83 15 80 10 53 106
-8 28 -20 51 -27 51 -7 -1 -36 -6 -64 -11z"/>
<path d="M2821 1298 c-7 -34 -13 -67 -14 -73 -5 -34 383 -52 542 -26 l83 14
-6 36 c-3 20 -11 53 -17 75 -9 34 -13 37 -37 32 -15 -3 -78 -11 -139 -18 -107
-11 -243 -5 -368 18 -31 6 -31 6 -44 -58z"/>
</g>
</svg>
